<?xml version="1.0" encoding="UTF-8" standalone="no"?>
<!-- Created with Inkscape (http://www.inkscape.org/) -->

<svg
   xmlns:dc="http://purl.org/dc/elements/1.1/"
   xmlns:cc="http://creativecommons.org/ns#"
   xmlns:rdf="http://www.w3.org/1999/02/22-rdf-syntax-ns#"
   xmlns:svg="http://www.w3.org/2000/svg"
   xmlns="http://www.w3.org/2000/svg"
   xmlns:sodipodi="http://sodipodi.sourceforge.net/DTD/sodipodi-0.dtd"
   xmlns:inkscape="http://www.inkscape.org/namespaces/inkscape"
   width="400"
   height="400"
   id="svg2"
   sodipodi:version="0.32"
   inkscape:version="0.92.2 5c3e80d, 2017-08-06"
   sodipodi:docname="icon.svg"
   inkscape:output_extension="org.inkscape.output.svg.inkscape"
   version="1.0"
   inkscape:export-filename="/Users/toddcope/T3/Projects/Games/Paintball Party 2/icons/1024.png"
   inkscape:export-xdpi="245.75999"
   inkscape:export-ydpi="245.75999">
  <defs
     id="defs4">
    <inkscape:perspective
       sodipodi:type="inkscape:persp3d"
       inkscape:vp_x="0 : 526.18109 : 1"
       inkscape:vp_y="0 : 1000 : 0"
       inkscape:vp_z="744.09448 : 526.18109 : 1"
       inkscape:persp3d-origin="372.04724 : 350.78739 : 1"
       id="perspective10" />
    <inkscape:perspective
       id="perspective2484"
       inkscape:persp3d-origin="372.04724 : 350.78739 : 1"
       inkscape:vp_z="744.09448 : 526.18109 : 1"
       inkscape:vp_y="0 : 1000 : 0"
       inkscape:vp_x="0 : 526.18109 : 1"
       sodipodi:type="inkscape:persp3d" />
  </defs>
  <sodipodi:namedview
     id="base"
     pagecolor="#ffffff"
     bordercolor="#666666"
     borderopacity="1.0"
     gridtolerance="10000"
     guidetolerance="10"
     objecttolerance="10"
     inkscape:pageopacity="0.0"
     inkscape:pageshadow="2"
     inkscape:zoom="0.35"
     inkscape:cx="191.58032"
     inkscape:cy="125.94713"
     inkscape:document-units="px"
     inkscape:current-layer="layer1"
     showgrid="false"
     inkscape:window-width="1259"
     inkscape:window-height="719"
     inkscape:window-x="0"
     inkscape:window-y="1"
     borderlayer="true"
     inkscape:showpageshadow="false"
     inkscape:window-maximized="0" />
  <metadata
     id="metadata7">
    <rdf:RDF>
      <cc:Work
         rdf:about="">
        <dc:format>image/svg+xml</dc:format>
        <dc:type
           rdf:resource="http://purl.org/dc/dcmitype/StillImage" />
      </cc:Work>
    </rdf:RDF>
  </metadata>
  <g
     inkscape:label="Layer 1"
     inkscape:groupmode="layer"
     id="layer1">
    <path
       style="fill:#000000;fill-opacity:0.20784314;fill-rule:evenodd;stroke:none;stroke-width:2;stroke-linecap:butt;stroke-linejoin:miter;stroke-miterlimit:4;stroke-dasharray:none;stroke-opacity:1"
       d="M 119.08977,288.72666 C 119.08977,288.72666 105.67888,294.70612 99.139261,294.53504 C 96.455181,294.46482 93.105051,291.17537 90.552961,292.00965 C 87.470741,293.01723 83.532151,297.38527 83.986971,300.59595 C 84.594791,304.88677 91.321621,309.84872 95.603721,309.18225 C 98.928051,308.66485 96.479791,301.99066 99.644331,300.84848 C 104.20732,299.20156 110.886,303.77434 110.886,303.77434"
       id="path3446"
       sodipodi:nodetypes="csssssc" />
    <path
       style="fill:#000000;fill-opacity:0.20784314;fill-rule:evenodd;stroke:none;stroke-width:2;stroke-linecap:butt;stroke-linejoin:miter;stroke-miterlimit:4;stroke-dasharray:none;stroke-opacity:1"
       d="M 116.97781,316.4966 C 116.97781,316.4966 108.66902,323.43 103.10617,322.55751 C 101.30362,322.27479 100.37782,318.35456 98.560479,318.5169 C 95.87339,318.75693 92.082957,323.05251 93.00464,325.58797 C 95.014901,331.11801 106.32305,329.96454 112.19753,329.62858 C 117.45966,329.32764 126.33967,325.84051 126.33967,325.84051"
       id="path3444"
       sodipodi:nodetypes="cssssc" />
    <path
       sodipodi:type="arc"
       style="opacity:1;fill:#000000;fill-opacity:0.20784314;fill-rule:evenodd;stroke:none;stroke-width:2;stroke-linecap:butt;stroke-linejoin:miter;marker:none;marker-start:none;marker-mid:none;marker-end:none;stroke-miterlimit:4;stroke-dasharray:none;stroke-dashoffset:0;stroke-opacity:1;visibility:visible;display:inline;overflow:visible;enable-background:accumulate"
       id="path3442"
       sodipodi:cx="123.21429"
       sodipodi:cy="306.78571"
       sodipodi:rx="23.928572"
       sodipodi:ry="23.928572"
       d="M 147.14286,306.78571 A 23.928572,23.928572 0 1 1 99.285715,306.78571 A 23.928572,23.928572 0 1 1 147.14286,306.78571 z"
       transform="translate(12.146154,0.7853366)" />
    <path
       style="fill:#000000;fill-opacity:0.20784314;fill-rule:evenodd;stroke:none;stroke-width:2;stroke-linecap:butt;stroke-linejoin:miter;stroke-miterlimit:4;stroke-dasharray:none;stroke-opacity:1"
       d="M 72.164301,321.09255 C 67.884491,320.78191 61.817719,326.40582 61.557699,330.689 C 61.375449,333.69112 65.198656,337.56508 68.123691,338.26514 C 72.419971,339.29338 80.681788,336.99312 81.760748,332.7093 C 82.864808,328.32584 76.672802,321.41979 72.164301,321.09255 z"
       id="path3440"
       sodipodi:nodetypes="cssss" />
    <path
       style="fill:#000000;fill-opacity:0.20784314;fill-rule:evenodd;stroke:none;stroke-width:2;stroke-linecap:butt;stroke-linejoin:miter;stroke-miterlimit:4;stroke-dasharray:none;stroke-opacity:1"
       d="M 67.345505,302.57211 C 64.656816,296.77028 52.474076,294.9092 46.637378,297.52134 C 44.286206,298.57358 42.550263,302.52202 42.596768,305.09749 C 42.694829,310.52823 46.30956,319.99761 51.688141,320.75485 C 56.887954,321.48692 61.201377,312.86138 64.315048,308.63302 C 65.520464,306.99607 68.200266,304.41657 67.345505,302.57211 z"
       id="path3438"
       sodipodi:nodetypes="csssss" />
    <path
       style="fill:#000000;fill-opacity:0.20784314;fill-rule:evenodd;stroke:none;stroke-width:2;stroke-linecap:butt;stroke-linejoin:miter;stroke-miterlimit:4;stroke-dasharray:none;stroke-opacity:1"
       d="M 33.088453,325.87016 C 28.330129,324.97591 18.486023,326.6157 17.936165,331.426 C 17.401599,336.10252 26.361535,339.954 31.068148,340.01229 C 34.8102,340.05863 41.359511,337.17534 41.67475,333.4463 C 41.964122,330.02325 36.464609,326.50465 33.088453,325.87016 z"
       id="path3436"
       sodipodi:nodetypes="cssss" />
    <path
       style="fill:#000000;fill-opacity:0.20784314;fill-rule:evenodd;stroke:none;stroke-width:2;stroke-linecap:butt;stroke-linejoin:miter;stroke-miterlimit:4;stroke-dasharray:none;stroke-opacity:1"
       d="M 163.53659,56.736189 L 166.44449,106.30545 C 166.44449,106.30545 226.44891,93.828609 252.01161,97.387399 C 264.94251,99.187619 283.30151,104.20405 292.41771,113.54984 C 300.31821,121.64935 305.71351,137.59176 305.54971,148.90518 C 305.35081,162.63476 296.84951,180.52606 288.37711,191.33158 C 280.07351,201.92179 262.52991,209.20108 252.01161,217.59555 C 236.23591,230.18584 214.07241,246.2492 201.50391,262.04226 C 194.40475,270.96285 185.98364,284.36465 183.44377,295.47882 C 180.6796,307.57449 185.34152,336.79355 185.34152,336.79355 L 396.46341,305.47882 L 389.39231,250.93058 L 260.09281,274.16409 C 260.09281,274.16409 314.98721,242.44564 332.18131,222.03355 C 344.00571,207.99608 354.24851,184.79242 359.08771,167.08792 C 363.17531,152.1337 365.77971,130.84454 363.12841,115.57014 C 360.34461,99.532699 352.97701,76.991259 340.90501,66.072669 C 327.40111,53.858969 301.40371,49.056359 283.32631,46.879769 C 247.52651,42.569329 163.53659,56.736189 163.53659,56.736189 z"
       id="path3418"
       sodipodi:nodetypes="ccsssssssccccsssssc" />
    <path
       style="fill:#000000;fill-opacity:0.20772944;fill-rule:evenodd;stroke:none;stroke-width:2;stroke-linecap:butt;stroke-linejoin:miter;stroke-miterlimit:4;stroke-dasharray:none;stroke-opacity:1"
       d="M 75.660667,127.35747 C 63.719277,127.42541 50.647397,128.71544 43.816917,129.48247 L 43.816917,129.35747 L 15.223167,132.20122 L 26.660667,275.07622 L 55.223167,270.79497 L 49.785667,203.41997 C 58.076597,203.22255 84.874557,202.23462 97.035667,197.57622 C 104.79438,194.6042 114.7567,188.28306 119.66067,181.57622 C 122.75781,177.34047 125.13273,170.16377 124.94192,164.91997 C 124.66587,157.33315 121.38301,148.08659 115.53567,141.41997 C 109.90488,135.00027 98.683369,129.84325 90.285667,128.29497 C 86.385667,127.57593 81.215967,127.32586 75.660667,127.35747 z M 68.473167,145.04497 C 71.435367,145.04745 74.243237,145.15895 76.660667,145.45122 C 81.661107,146.05579 88.520817,147.31359 92.316917,151.51372 C 96.113017,155.71384 98.823839,159.49389 98.941919,163.63872 C 99.012369,166.11159 97.038867,169.24494 95.410666,171.10747 C 92.703367,174.20437 87.760547,177.12756 83.910667,178.57622 C 73.272337,182.57923 54.164677,182.93669 48.129417,182.95122 L 45.191917,146.57622 C 50.907077,145.92755 60.230697,145.03807 68.473167,145.04497 z"
       id="path3376" />
    <path
       style="fill:#93d200;fill-opacity:1;fill-rule:evenodd;stroke:#000000;stroke-width:2;stroke-linecap:butt;stroke-linejoin:miter;stroke-miterlimit:4;stroke-dasharray:none;stroke-opacity:1"
       d="M 20.672477,269.37548 L 9.2439066,126.51834 L 37.815337,123.6612 L 49.243907,265.08977 L 20.672477,269.37548 z"
       id="path3378"
       sodipodi:nodetypes="ccccc" />
    <path
       sodipodi:type="arc"
       style="opacity:1;fill:none;fill-opacity:1;fill-rule:evenodd;stroke:#000000;stroke-width:15;stroke-linecap:butt;stroke-linejoin:miter;marker:none;marker-start:none;marker-mid:none;marker-end:none;stroke-miterlimit:4;stroke-dasharray:none;stroke-dashoffset:0;stroke-opacity:1;visibility:visible;display:inline;overflow:visible;enable-background:accumulate"
       id="path3380"
       sodipodi:cx="108.57143"
       sodipodi:cy="218.21428"
       sodipodi:rx="40.714287"
       sodipodi:ry="38.92857"
       d="M 149.28571,218.21428 A 40.714287,38.92857 0 0 1 149.28571,218.21493"
       sodipodi:start="0"
       sodipodi:end="1.6753883e-05"
       sodipodi:open="true"
       transform="translate(-55.041813,-53.481665)" />
    <path
       style="fill:#93d200;fill-opacity:1;fill-rule:evenodd;stroke:#000000;stroke-width:2;stroke-linecap:butt;stroke-linejoin:miter;stroke-miterlimit:4;stroke-dasharray:none;stroke-opacity:1"
       d="M 32.841467,124.37355 C 32.841467,124.37355 68.697957,119.7222 84.297967,122.59835 C 92.695657,124.14663 103.921,129.31063 109.55179,135.73033 C 115.39914,142.39694 118.68092,151.63699 118.95697,159.22381 C 119.14777,164.46761 116.75081,171.65558 113.65367,175.89133 C 108.7497,182.59816 98.810219,188.92391 91.051507,191.89593 C 76.700087,197.39334 40.165067,197.79901 40.165067,197.79901 L 39.470587,177.26451 C 39.470587,177.26451 65.293807,177.64327 77.919517,172.89244 C 81.769417,171.44379 86.702697,168.50789 89.409997,165.41099 C 91.038217,163.54847 93.015985,160.43399 92.945535,157.96112 C 92.827457,153.81628 90.114367,150.03197 86.318267,145.83185 C 82.522177,141.63173 75.661347,140.3755 70.660907,139.77093 C 57.767947,138.21214 33.851617,141.54614 33.851617,141.54614"
       id="path3382"
       sodipodi:nodetypes="csssssccssszsc" />
    <path
       style="fill:#93d200;fill-opacity:1;fill-rule:evenodd;stroke:none;stroke-width:1px;stroke-linecap:butt;stroke-linejoin:miter;stroke-opacity:1"
       d="M 38.649837,137.253 L 43.700607,206.19591 L 28.295777,203.16545 L 30.316087,137.253 L 38.649837,137.253 z"
       id="path3384" />
    <path
       style="fill:#000000;fill-opacity:0.14009663;fill-rule:evenodd;stroke:none;stroke-width:1px;stroke-linecap:butt;stroke-linejoin:miter;stroke-opacity:1"
       d="M 23.076797,266.03745 L 46.815387,262.50192 L 41.764627,196.33693 L 42.774777,259.47146 L 23.076797,266.03745 z"
       id="path3388" />
    <path
       style="fill:#000000;fill-opacity:0.14009663;fill-rule:evenodd;stroke:none;stroke-width:1px;stroke-linecap:butt;stroke-linejoin:miter;stroke-opacity:1"
       d="M 67.018437,194.31662 C 67.018437,194.31662 82.819917,192.77127 89.746867,189.77094 C 97.005007,186.62717 106.42558,180.59448 110.96007,174.11357 C 114.03858,169.71363 118.03114,156.94098 118.03114,156.94098 C 118.03114,156.94098 110.56151,168.89813 106.91946,173.10342 C 102.03859,178.73913 93.898765,184.93936 87.221487,188.25571 C 81.032307,191.32965 67.018437,194.31662 67.018437,194.31662 z"
       id="path3390"
       sodipodi:nodetypes="csscssc" />
    <path
       style="fill:#000000;fill-opacity:0.14009663;fill-rule:evenodd;stroke:none;stroke-width:1px;stroke-linecap:butt;stroke-linejoin:miter;stroke-opacity:1"
       d="M 39.744317,177.14403 L 37.218937,137.74808 L 72.069197,136.73793 L 34.693557,136.73793 L 36.713857,166.03235 L 39.744317,177.14403 z"
       id="path3392" />
    <path
       style="fill:#000000;fill-opacity:0.20772944;fill-rule:evenodd;stroke:none;stroke-width:2;stroke-linecap:butt;stroke-linejoin:miter;stroke-miterlimit:4;stroke-dasharray:none;stroke-opacity:1"
       d="M 196.87898,119.27625 C 184.93759,119.34419 171.86571,120.63422 165.03523,121.40125 L 165.03523,121.27625 L 136.44148,124.12 L 147.87898,266.995 L 176.44148,262.71375 L 171.00398,195.33875 C 179.29491,195.14133 206.09287,194.1534 218.25398,189.495 C 226.01269,186.52298 235.97501,180.20184 240.87898,173.495 C 243.97612,169.25925 246.35104,162.08255 246.16023,156.83875 C 245.88418,149.25193 242.60132,140.00537 236.75398,133.33875 C 231.12319,126.91905 219.90168,121.76203 211.50398,120.21375 C 207.60398,119.49471 202.43428,119.24464 196.87898,119.27625 z M 189.69148,136.96375 C 192.65368,136.96623 195.46155,137.07773 197.87898,137.37 C 202.87942,137.97457 209.73913,139.23237 213.53523,143.4325 C 217.33133,147.63262 220.04215,151.41267 220.16023,155.5575 C 220.23068,158.03037 218.25718,161.16372 216.62898,163.02625 C 213.92168,166.12315 208.97886,169.04634 205.12898,170.495 C 194.49065,174.49801 175.38299,174.85547 169.34773,174.87 L 166.41023,138.495 C 172.12539,137.84633 181.44901,136.95685 189.69148,136.96375 z"
       id="path3396" />
    <path
       style="fill:#93d200;fill-opacity:1;fill-rule:evenodd;stroke:#000000;stroke-width:2;stroke-linecap:butt;stroke-linejoin:miter;stroke-miterlimit:4;stroke-dasharray:none;stroke-opacity:1"
       d="M 141.89079,261.29426 L 130.46222,118.43712 L 159.03365,115.57998 L 170.46222,257.00855 L 141.89079,261.29426 z"
       id="path3398"
       sodipodi:nodetypes="ccccc" />
    <path
       sodipodi:type="arc"
       style="opacity:1;fill:none;fill-opacity:1;fill-rule:evenodd;stroke:#000000;stroke-width:15;stroke-linecap:butt;stroke-linejoin:miter;marker:none;marker-start:none;marker-mid:none;marker-end:none;stroke-miterlimit:4;stroke-dasharray:none;stroke-dashoffset:0;stroke-opacity:1;visibility:visible;display:inline;overflow:visible;enable-background:accumulate"
       id="path3400"
       sodipodi:cx="108.57143"
       sodipodi:cy="218.21428"
       sodipodi:rx="40.714287"
       sodipodi:ry="38.92857"
       d="M 149.28571,218.21428 A 40.714287,38.92857 0 0 1 149.28571,218.21493"
       sodipodi:start="0"
       sodipodi:end="1.6753883e-05"
       sodipodi:open="true"
       transform="translate(66.176494,-61.562884)" />
    <path
       style="fill:#93d200;fill-opacity:1;fill-rule:evenodd;stroke:#000000;stroke-width:2;stroke-linecap:butt;stroke-linejoin:miter;stroke-miterlimit:4;stroke-dasharray:none;stroke-opacity:1"
       d="M 154.05978,116.29233 C 154.05978,116.29233 189.91627,111.64098 205.51628,114.51713 C 213.91397,116.06541 225.13931,121.22941 230.7701,127.64911 C 236.61745,134.31572 239.89923,143.55577 240.17528,151.14259 C 240.36608,156.38639 237.96912,163.57436 234.87198,167.81011 C 229.96801,174.51694 220.02853,180.84269 212.26982,183.81471 C 197.9184,189.31212 161.38338,189.71779 161.38338,189.71779 L 160.6889,169.18329 C 160.6889,169.18329 186.51212,169.56205 199.13783,164.81122 C 202.98773,163.36257 207.92101,160.42667 210.62831,157.32977 C 212.25653,155.46725 214.2343,152.35277 214.16385,149.8799 C 214.04577,145.73506 211.33268,141.95075 207.53658,137.75063 C 203.74049,133.55051 196.87966,132.29428 191.87922,131.68971 C 178.98626,130.13092 155.06993,133.46492 155.06993,133.46492"
       id="path3402"
       sodipodi:nodetypes="csssssccssszsc" />
    <path
       style="fill:#93d200;fill-opacity:1;fill-rule:evenodd;stroke:none;stroke-width:1px;stroke-linecap:butt;stroke-linejoin:miter;stroke-opacity:1"
       d="M 159.86815,129.17178 L 164.91892,198.11469 L 149.51409,195.08423 L 151.5344,129.17178 L 159.86815,129.17178 z"
       id="path3404" />
    <path
       style="fill:#000000;fill-opacity:0.14009663;fill-rule:evenodd;stroke:none;stroke-width:1px;stroke-linecap:butt;stroke-linejoin:miter;stroke-opacity:1"
       d="M 144.29511,257.95623 L 168.0337,254.4207 L 162.98294,188.25571 L 163.99309,251.39024 L 144.29511,257.95623 z"
       id="path3406" />
    <path
       style="fill:#000000;fill-opacity:0.14009663;fill-rule:evenodd;stroke:none;stroke-width:1px;stroke-linecap:butt;stroke-linejoin:miter;stroke-opacity:1"
       d="M 188.23675,186.2354 C 188.23675,186.2354 204.03823,184.69005 210.96518,181.68972 C 218.22332,178.54595 227.64389,172.51326 232.17838,166.03235 C 235.25689,161.63241 239.24945,148.85976 239.24945,148.85976 C 239.24945,148.85976 231.77982,160.81691 228.13777,165.0222 C 223.2569,170.65791 215.11708,176.85814 208.4398,180.17449 C 202.25062,183.24843 188.23675,186.2354 188.23675,186.2354 z"
       id="path3408"
       sodipodi:nodetypes="csscssc" />
    <path
       style="fill:#000000;fill-opacity:0.14009663;fill-rule:evenodd;stroke:none;stroke-width:1px;stroke-linecap:butt;stroke-linejoin:miter;stroke-opacity:1"
       d="M 160.96263,169.06281 L 158.43725,129.66686 L 193.28751,128.65671 L 155.91187,128.65671 L 157.93217,157.95113 L 160.96263,169.06281 z"
       id="path3410" />
    <path
       style="fill:#c3627f;fill-opacity:1;fill-rule:evenodd;stroke:#000000;stroke-width:2;stroke-linecap:butt;stroke-linejoin:miter;stroke-miterlimit:4;stroke-dasharray:none;stroke-opacity:1"
       d="M 151.15524,48.124818 L 154.06314,97.694078 C 154.06314,97.694078 214.06764,85.217238 239.63024,88.776028 C 252.56114,90.576248 270.92014,95.592678 280.03634,104.93847 C 287.93684,113.03798 293.33224,128.98039 293.16834,140.29381 C 292.96944,154.02339 284.46814,171.91469 275.99574,182.72021 C 267.69214,193.31042 250.14854,200.58971 239.63024,208.98418 C 223.85454,221.57447 201.69114,237.63783 189.12261,253.43089 C 182.0234,262.35148 173.60229,275.75328 171.06242,286.86745 C 168.29825,298.96312 172.96017,328.18218 172.96017,328.18218 L 384.08204,296.86745 L 377.01094,242.31921 L 247.71144,265.55272 C 247.71144,265.55272 302.60584,233.83427 319.79994,213.42218 C 331.62444,199.38471 341.86714,176.18105 346.70644,158.47655 C 350.79394,143.52233 353.39834,122.23317 350.74704,106.95877 C 347.96324,90.921328 340.59564,68.379888 328.52364,57.461298 C 315.01974,45.247598 289.02234,40.444988 270.94494,38.268398 C 235.14514,33.957958 151.15524,48.124818 151.15524,48.124818 z"
       id="path3412"
       sodipodi:nodetypes="ccsssssssccccsssssc" />
    <path
       style="fill:#000000;fill-opacity:0.14009663;fill-rule:evenodd;stroke:none;stroke-width:1px;stroke-linecap:butt;stroke-linejoin:miter;stroke-opacity:1"
       d="M 374.46114,247.90628 L 380.17544,292.90628 L 177.44085,324.12564 L 365.29794,285.55421 L 374.46114,247.90628 z"
       id="path3414"
       sodipodi:nodetypes="ccccc" />
    <path
       style="fill:#000000;fill-opacity:0.14009663;fill-rule:evenodd;stroke:none;stroke-width:1px;stroke-linecap:butt;stroke-linejoin:miter;stroke-opacity:1"
       d="M 156.36942,94.482788 C 156.36942,94.482788 198.44574,86.397528 216.72654,85.197068 C 226.67174,84.543988 240.24114,83.620398 249.94084,85.911358 C 258.70974,87.982478 269.88414,93.350898 277.08374,98.768498 C 280.96564,101.68961 287.79794,110.91136 287.79794,110.91136 C 287.79794,110.91136 283.64824,98.943498 279.94084,95.197068 C 273.50304,88.691548 261.67224,83.507638 252.79794,81.268498 C 242.51104,78.672928 227.99504,79.473748 217.44084,80.554208 C 198.74664,82.467988 156.36942,94.482788 156.36942,94.482788 z"
       id="path3416"
       sodipodi:nodetypes="cssscsssc" />
    <path
       style="fill:#000000;fill-opacity:0.14009663;fill-rule:evenodd;stroke:none;stroke-width:1px;stroke-linecap:butt;stroke-linejoin:miter;stroke-opacity:1"
       d="M 244.19653,263.1494 C 244.19653,263.1494 284.85213,236.22357 300.76513,222.7433 C 307.63223,216.92592 316.77053,208.87034 321.97833,201.53009 C 329.86043,190.42031 337.75693,173.66479 341.67623,160.61892 C 345.24003,148.75667 347.23213,119.70774 347.23213,119.70774 C 347.23213,119.70774 341.43343,149.23338 336.62553,161.12399 C 331.46143,173.89555 322.36073,190.15545 313.89703,201.02502 C 307.31323,209.48046 296.08713,218.58654 288.13813,225.77375 C 275.30123,237.38049 244.19653,263.1494 244.19653,263.1494 z"
       id="path3420"
       sodipodi:nodetypes="cssscsssc" />
    <path
       sodipodi:type="arc"
       style="opacity:1;fill:#93d200;fill-opacity:1;fill-rule:evenodd;stroke:#000000;stroke-width:2;stroke-linecap:butt;stroke-linejoin:miter;marker:none;marker-start:none;marker-mid:none;marker-end:none;stroke-miterlimit:4;stroke-dasharray:none;stroke-dashoffset:0;stroke-opacity:1;visibility:visible;display:inline;overflow:visible;enable-background:accumulate"
       id="path3422"
       sodipodi:cx="123.21429"
       sodipodi:cy="306.78571"
       sodipodi:rx="23.928572"
       sodipodi:ry="23.928572"
       d="M 147.14286,306.78571 A 23.928572,23.928572 0 1 1 99.285715,306.78571 A 23.928572,23.928572 0 1 1 147.14286,306.78571 z"
       transform="translate(7.8571429,-3.5714286)" />
    <path
       style="fill:#93d200;fill-rule:evenodd;stroke:#000000;stroke-width:2;stroke-linecap:butt;stroke-linejoin:miter;stroke-opacity:1;fill-opacity:1;stroke-miterlimit:4;stroke-dasharray:none"
       d="M 116.42008,285.09515 C 116.42008,285.09515 103.00919,291.07461 96.469568,290.90353 C 93.785493,290.83331 90.435362,287.54386 87.883271,288.37814 C 84.801048,289.38572 80.862465,293.75376 81.31728,296.96444 C 81.925105,301.25526 88.651927,306.21721 92.934034,305.55074 C 96.258366,305.03334 93.810104,298.35915 96.974645,297.21697 C 101.53763,295.57005 108.21631,300.14283 108.21631,300.14283"
       id="path3424"
       sodipodi:nodetypes="csssssc" />
    <path
       style="fill:#93d200;fill-rule:evenodd;stroke:#000000;stroke-width:2;stroke-linecap:butt;stroke-linejoin:miter;stroke-opacity:1;fill-opacity:1;stroke-miterlimit:4;stroke-dasharray:none"
       d="M 111.35137,313.63196 C 111.35137,313.63196 103.04258,320.56536 97.479721,319.69287 C 95.67718,319.41015 94.751375,315.48992 92.934034,315.65226 C 90.246945,315.89229 86.456512,320.18787 87.378195,322.72333 C 89.388456,328.25337 100.69661,327.0999 106.57109,326.76394 C 111.83322,326.463 120.71323,322.97587 120.71323,322.97587"
       id="path3426"
       sodipodi:nodetypes="cssssc" />
    <path
       style="fill:#93d200;fill-opacity:1;fill-rule:evenodd;stroke:#000000;stroke-width:2;stroke-linecap:butt;stroke-linejoin:miter;stroke-miterlimit:4;stroke-dasharray:none;stroke-opacity:1"
       d="M 62.124381,298.47967 C 59.435692,292.67784 47.252952,290.81676 41.416254,293.4289 C 39.065082,294.48114 37.329139,298.42958 37.375644,301.00505 C 37.473705,306.43579 41.088436,315.90517 46.467017,316.66241 C 51.66683,317.39448 55.980253,308.76894 59.093924,304.54058 C 60.29934,302.90363 62.979142,300.32413 62.124381,298.47967 z"
       id="path3428"
       sodipodi:nodetypes="csssss" />
    <path
       style="fill:#93d200;fill-rule:evenodd;stroke:#000000;stroke-width:2;stroke-linecap:butt;stroke-linejoin:miter;stroke-opacity:1;fill-opacity:1;stroke-miterlimit:4;stroke-dasharray:none"
       d="M 68.185297,317.67257 C 63.905487,317.36193 57.838715,322.98584 57.578695,327.26902 C 57.396445,330.27114 61.219652,334.1451 64.144687,334.84516 C 68.440967,335.8734 76.702784,333.57314 77.781746,329.28932 C 78.885804,324.90586 72.693798,317.99981 68.185297,317.67257 z"
       id="path3430"
       sodipodi:nodetypes="cssss" />
    <path
       style="fill:#93d200;fill-opacity:1;fill-rule:evenodd;stroke:#000000;stroke-width:2;stroke-linecap:butt;stroke-linejoin:miter;stroke-miterlimit:4;stroke-dasharray:none;stroke-opacity:1"
       d="M 28.789347,320.19795 C 24.031023,319.3037 14.186917,320.94349 13.637059,325.75379 C 13.102493,330.43031 22.062429,334.28179 26.769042,334.34008 C 30.511094,334.38642 37.060405,331.50313 37.375644,327.77409 C 37.665016,324.35104 32.165503,320.83244 28.789347,320.19795 z"
       id="path3432"
       sodipodi:nodetypes="cssss" />
    <path
       style="fill:#000000;fill-rule:evenodd;stroke:none;stroke-width:1px;stroke-linecap:butt;stroke-linejoin:miter;stroke-opacity:1;fill-opacity:0.20784314000000001"
       d="M 124.28571,323.57143 C 124.28571,323.57143 132.92817,324.58019 136.42857,323.57143 C 140.68465,322.34489 146.32873,319.3003 148.92857,315.71429 C 151.78086,311.78008 152.85714,300 152.85714,300 C 152.85714,300 149.21194,310.50194 146.07143,313.92857 C 143.53874,316.692 138.79271,318.85785 135.35714,320.35714 C 132.18726,321.74048 124.28571,323.57143 124.28571,323.57143 z"
       id="path3434"
       sodipodi:nodetypes="csscssc" />
  </g>
</svg>
